<svg width="78" height="44" viewBox="0 0 78 44" version="1.1" xmlns="http://www.w3.org/2000/svg" xmlns:xlink="http://www.w3.org/1999/xlink">
<title>Badges</title>
<desc>Created using Figma</desc>
<g id="Canvas" transform="translate(-12 280)">
<g id="Badges">
<g id="Error">
<g id="Ellipse">
<use xlink:href="#path0_fill" transform="matrix(0.977699 0.210011 -0.210011 0.977699 51.8786 -282.942)" fill="#FF4136"/>
</g>
<g id="Rectangle 3">
<use xlink:href="#path1_fill" transform="matrix(0.210011 -0.977699 0.977699 0.210011 65.2046 -254.509)" fill="#FFFFFF"/>
</g>
<g id="Rectangle 3">
<use xlink:href="#path2_fill" transform="matrix(0.210011 -0.977699 0.977699 0.210011 63.7345 -247.665)" fill="#FFFFFF"/>
</g>
</g>
<g id="Check">
<g id="Ellipse">
<use xlink:href="#path0_fill" transform="matrix(0.980754 -0.195246 0.195246 0.980754 9.30399 -274.496)" fill="#00AE00"/>
</g>
<g id="Group">
<g id="Rectangle 3">
<use xlink:href="#path3_fill" transform="matrix(0.855333 0.518078 -0.518078 0.855333 24.5166 -258.007)" fill="#FFFFFF"/>
</g>
<g id="Rectangle 3">
<use xlink:href="#path4_fill" transform="matrix(0.518078 -0.855333 0.855333 0.518078 31.3226 -249.828)" fill="#FFFFFF"/>
</g>
</g>
</g>
</g>
</g>
<defs>
<path id="path0_fill" d="M 42 21C 42 32.598 32.598 42 21 42C 9.40202 42 0 32.598 0 21C 0 9.40202 9.40202 0 21 0C 32.598 0 42 9.40202 42 21Z"/>
<path id="path1_fill" d="M 0 0L 15 0L 15 4L 0 4L 0 0Z"/>
<path id="path2_fill" d="M 0 0L 4 0L 4 4L 0 4L 0 0Z"/>
<path id="path3_fill" d="M 0 0L 14 0L 14 4L 0 4L 0 0Z"/>
<path id="path4_fill" d="M 0 0L 21 0L 21 4L 0 4L 0 0Z"/>
</defs>
</svg>
